<?xml version="1.0" encoding="UTF-8" standalone="no"?>
<!DOCTYPE svg PUBLIC "-//W3C//DTD SVG 1.1//EN" "http://www.w3.org/Graphics/SVG/1.1/DTD/svg11.dtd">
<svg version="1.1" xmlns="http://www.w3.org/2000/svg" xmlns:xlink="http://www.w3.org/1999/xlink" preserveAspectRatio="xMidYMid meet" viewBox="0 0 640 640" width="640" height="640"><defs><path d="M431.3 237C441.3 269.3 455.3 296.8 449.6 320C443.8 343.1 418.4 361.8 403.6 403.3C388.7 444.9 384.5 509.2 360.7 524C336.9 538.9 293.5 504.4 262.9 473.7C232.2 443.1 214.4 416.4 178.9 394.4C143.5 372.4 90.6 355 72.2 323.8C53.9 292.6 70.1 247.5 87.6 200.5C105.2 153.6 124.2 104.8 159.8 81.1C195.5 57.4 247.7 58.7 292.1 71C336.4 83.4 372.8 106.7 394 137C415.3 167.3 421.3 204.6 431.3 237Z" id="c1plVCMYnr"></path></defs><g><g><g><use xlink:href="#c1plVCMYnr" opacity="1" fill="#ddd0f1" fill-opacity="1"></use><g><use xlink:href="#c1plVCMYnr" opacity="1" fill-opacity="0" stroke="#000000" stroke-width="1" stroke-opacity="0"></use></g></g></g></g></svg>