<?xml version="1.0" standalone="no"?>
<svg
  width="600"
  height="600"
  viewBox="0 0 600 600"
  xmlns="http://www.w3.org/2000/svg"
>
  <g transform="translate(300,300)">
    <path d="M94,-163C115.3,-132.7,121.3,-95.4,131.3,-63C141.3,-30.7,155.3,-3.2,149.6,20C143.8,43.1,118.4,61.8,103.6,103.3C88.7,144.9,84.5,209.2,60.7,224C36.9,238.9,-6.5,204.4,-37.1,173.7C-67.8,143.1,-85.6,116.4,-121.1,94.4C-156.5,72.4,-209.4,55,-227.8,23.8C-246.1,-7.4,-229.9,-52.5,-212.4,-99.5C-194.8,-146.4,-175.8,-195.2,-140.2,-218.9C-104.5,-242.6,-52.3,-241.3,-7.9,-229C36.4,-216.6,72.8,-193.3,94,-163Z" fill="#a589d1" />
  </g>
</svg>
  