<?xml version="1.0" encoding="UTF-8" standalone="no"?>
<svg
   xmlns:dc="http://purl.org/dc/elements/1.1/"
   xmlns:cc="http://creativecommons.org/ns#"
   xmlns:rdf="http://www.w3.org/1999/02/22-rdf-syntax-ns#"
   xmlns:svg="http://www.w3.org/2000/svg"
   xmlns="http://www.w3.org/2000/svg"
   viewBox="0 0 666.66669 666.66669"
   height="666.66669"
   width="666.66669"
   xml:space="preserve"
   id="svg2"
   version="1.1"><metadata
     id="metadata8"><rdf:RDF><cc:Work
         rdf:about=""><dc:format>image/svg+xml</dc:format><dc:type
           rdf:resource="http://purl.org/dc/dcmitype/StillImage" /></cc:Work></rdf:RDF></metadata><defs
     id="defs6" /><g
     transform="matrix(1.3333333,0,0,-1.3333333,0,666.66667)"
     id="g10"><g
       transform="scale(0.1)"
       id="g12"><path
         id="path16"
         style="fill:#68adef;fill-opacity:1;fill-rule:evenodd;stroke:none"
         d="m 4261.95,1806.96 c -176.2,0 -320.36,-144.16 -320.36,-320.36 v 0 0 c 0,-321.48 -263.03,-584.51 -584.51,-584.51 h -174.74 v 0 H 1824.56 1142.27 c -417.625,0 -759.317,341.69 -759.317,759.32 v 0 c 0,417.62 341.692,759.32 759.317,759.32 v 0 c 83.81,0 152.39,68.57 152.39,152.39 v 0 c 0,83.8 -68.58,152.38 -152.39,152.38 H 744.945 c -203.734,0 -370.429,166.7 -370.429,370.43 v 0 c 0,203.5 166.308,370.05 369.73,370.43 0.231,0 361.214,0 361.454,0 176.19,0 320.35,144.16 320.35,320.36 v 0 0 c 0,321.48 263.04,584.51 584.52,584.51 570.44,0 1283.62,0 1854.06,0 417.63,0 759.33,-341.7 759.33,-759.32 v 0 c 0,-417.62 -341.7,-759.32 -759.33,-759.32 v 0 c -83.81,0 -152.38,-68.58 -152.38,-152.38 v 0 c 0,-83.81 68.57,-152.39 152.38,-152.39 h 397.32 c 484.71,0 484.71,-740.86 0,-740.86" /><path
         id="path18"
         style="fill:#ffffff;fill-opacity:1;fill-rule:evenodd;stroke:none"
         d="m 1874.55,3699.02 c -5.89,-7.21 -0.32,-17.98 8.98,-17.36 3.05,0.26 5.53,1.52 7.5,3.88 4.42,5.41 8.94,10.68 13.52,15.95 7.17,8.3 -1.21,20.68 -11.62,17.05 -1.76,-0.68 -3.12,-1.58 -4.38,-2.99 -4.77,-5.4 -9.43,-10.95 -14,-16.53 z m -49.57,-71.24 c -2.17,-3.8 -1.86,-8.43 0.84,-11.9 4.59,-5.91 13.87,-5.26 17.59,1.24 3.46,6.01 7.06,11.94 10.79,17.79 2.49,3.92 2.21,8.97 -0.77,12.54 -4.57,5.53 -13.31,5.01 -17.16,-1.05 -3.9,-6.13 -7.66,-12.33 -11.29,-18.62 z m -35.36,-79.87 c -0.71,-2.34 -0.64,-4.53 0.17,-6.84 3.63,-9.53 16.99,-9.2 20.16,0.5 1.9,6.21 4.19,13.56 6.7,19.49 1.54,4.1 0.49,8.71 -2.75,11.66 -5.53,5.04 -14.49,2.97 -17.14,-4.04 -2.62,-6.78 -5.01,-13.84 -7.14,-20.77 z m -14.04,-86.69 c -0.22,-10.93 14.2,-15.2 19.94,-5.47 0.84,1.54 1.31,3.19 1.35,4.93 0.15,6.87 0.49,13.72 1.08,20.57 0.94,11.21 -13.79,16.1 -19.74,6.43 -0.85,-1.45 -1.29,-2.85 -1.46,-4.51 -0.66,-7.27 -1.01,-14.64 -1.17,-21.95 z m 9.83,-87.19 c 0.88,-3.46 3.26,-6.15 6.6,-7.43 8.06,-3 16.01,4.21 14.07,12.52 -1.67,6.66 -3.12,13.36 -4.34,20.11 -2.09,11.1 -17.52,11.9 -20.73,1.03 -0.45,-1.58 -0.51,-3.1 -0.24,-4.72 1.31,-7.22 2.86,-14.39 4.64,-21.51 z m 32.31,-81.51 c 2.11,-3.85 6.27,-5.94 10.61,-5.45 7.53,1 11.65,8.98 8.06,15.68 -3.33,6.04 -6.47,12.12 -9.44,18.35 -2.13,4.47 -6.89,6.85 -11.74,5.9 -6.73,-1.35 -10.48,-8.77 -7.52,-14.97 3.14,-6.61 6.48,-13.09 10.03,-19.51 z m 51.22,-70.9 c 7.32,-7.99 20.49,-1.32 18.3,9.42 -0.42,1.86 -1.24,3.43 -2.51,4.87 -4.67,5.13 -9.16,10.35 -13.55,15.7 -2.93,3.6 -7.85,4.88 -12.16,3.18 -6.7,-2.64 -8.89,-11.05 -4.35,-16.63 4.63,-5.63 9.35,-11.14 14.27,-16.54 z m 64.61,-58.32 c 8.39,-6.23 19.76,1.92 16.51,11.91 -0.73,2.05 -1.91,3.77 -3.68,5.08 -5.57,4.18 -11.02,8.47 -16.42,12.86 -7.3,5.97 -18.21,0.2 -17.35,-9.2 0.32,-2.94 1.56,-5.34 3.84,-7.25 5.63,-4.58 11.3,-9.04 17.1,-13.4 z m 73.17,-46.47 c 3.02,-1.62 6.48,-1.72 9.59,-0.29 7.88,3.66 8.22,14.91 0.56,19.01 -6.13,3.3 -12.22,6.71 -18.23,10.22 -2.84,1.69 -6.35,1.94 -9.41,0.7 -8.17,-3.38 -8.99,-14.53 -1.41,-19.04 6.22,-3.64 12.55,-7.18 18.9,-10.6 z m 78.31,-36.37 c 3.94,-1.57 8.47,-0.67 11.48,2.33 5.39,5.4 3.55,14.59 -3.55,17.42 -6.51,2.6 -12.97,5.28 -19.41,8.04 -10.47,4.43 -19.73,-8.29 -12.1,-16.94 1.03,-1.11 2.26,-1.99 3.65,-2.6 6.6,-2.84 13.25,-5.59 19.93,-8.25 z m 81.41,-28.08 c 9.96,-2.97 17.84,8.74 11.35,16.86 -1.32,1.7 -3.22,2.92 -5.27,3.54 -6.71,1.99 -13.44,4.06 -20.11,6.19 -9.81,3.21 -18.02,-8.21 -11.78,-16.54 1.32,-1.76 3.14,-3.04 5.22,-3.71 6.84,-2.2 13.71,-4.31 20.59,-6.34 z m 83.24,-21.31 c 9.87,-2.1 16.88,9.2 10.47,17.22 -1.61,1.88 -3.49,3.02 -5.89,3.58 -6.88,1.5 -13.74,3.07 -20.59,4.68 -9.18,2.15 -16.39,-7.69 -11.56,-15.89 1.55,-2.45 3.8,-4.16 6.64,-4.83 6.97,-1.63 13.94,-3.23 20.93,-4.76 z m 84.32,-15.74 c 8.92,-1.3 15.32,8 10.89,15.85 -1.66,2.81 -4.31,4.64 -7.53,5.18 -6.94,1.09 -13.97,2.15 -20.86,3.42 -3.43,0.57 -6.77,-0.45 -9.28,-2.88 -6.17,-6.17 -2.96,-16.49 5.61,-18.1 7.01,-1.26 14.12,-2.35 21.17,-3.47 z m 84.95,-11.1 c 11.04,-1.15 16.33,13.18 7.02,19.48 -1.4,0.92 -3.04,1.5 -4.7,1.68 -7.02,0.75 -14.03,1.53 -21.05,2.36 -3.89,0.49 -7.74,-1.28 -9.99,-4.47 -4.56,-6.67 -0.55,-15.67 7.46,-16.67 7.09,-0.84 14.18,-1.62 21.26,-2.38 z m 85.06,-7.59 c 10.4,-0.86 15.73,12.18 7.68,18.85 -1.7,1.36 -3.64,2.19 -5.82,2.36 -7.09,0.63 -14.18,1.22 -21.27,1.81 -4.58,0.39 -8.86,-2.22 -10.67,-6.44 -2.8,-6.69 1.67,-14.18 8.92,-14.78 7.06,-0.58 14.11,-1.18 21.16,-1.8 z m 84.52,-8.31 c 4.68,-0.49 9.23,2.12 11,6.51 2.73,6.51 -1.66,13.92 -8.68,14.65 -7.08,0.77 -14.15,1.55 -21.23,2.27 -10.34,1.07 -15.95,-11.92 -7.97,-18.71 1.68,-1.41 3.59,-2.24 5.78,-2.46 7.03,-0.76 14.07,-1.5 21.1,-2.26 z m 84.28,-10.3 c 9.41,-1.18 15.58,9.41 9.92,16.95 -1.88,2.35 -4.09,3.71 -7.09,4.15 -7.05,0.95 -14.11,1.88 -21.17,2.79 -10.72,1.34 -16.45,-12.3 -7.78,-19.04 1.49,-1.13 3.21,-1.84 5.07,-2.08 7.02,-0.91 14.03,-1.83 21.05,-2.77 z m 83.91,-12.57 c 10.3,-1.72 16.65,11.09 9.03,18.25 -1.56,1.47 -3.46,2.4 -5.57,2.75 -7.04,1.17 -14.07,2.3 -21.1,3.4 -11.43,1.67 -17.06,-13.28 -7.26,-19.57 1.25,-0.77 2.51,-1.22 3.96,-1.46 6.98,-1.11 13.97,-2.23 20.94,-3.37 z m 83.46,-15.15 c 10.06,-1.88 16.74,9.9 10.02,17.53 -1.64,1.78 -3.53,2.86 -5.88,3.36 -7,1.39 -13.99,2.75 -20.99,4.07 -10.6,2 -17.17,-11.25 -8.92,-18.53 1.48,-1.22 3.05,-2.02 4.95,-2.37 6.94,-1.33 13.87,-2.68 20.82,-4.06 z m 82.79,-18.08 c 10.7,-2.5 17.74,10.86 9.58,18.28 -1.34,1.19 -2.88,2.02 -4.64,2.43 -6.65,1.21 -14.12,3.33 -20.84,4.86 -9.46,2.22 -16.73,-8.66 -11.02,-16.57 1.5,-2.13 3.76,-3.59 6.29,-4.18 6.63,-1.52 14.05,-3.62 20.63,-4.82 z m 81.94,-21.43 c 4.05,-1.11 8.48,0.17 11.13,3.46 4.86,5.87 2.08,14.98 -5.29,17.02 -6.87,1.95 -13.74,3.87 -20.63,5.76 -2.7,0.74 -5.53,0.37 -7.97,-0.97 -8.33,-4.69 -6.81,-17.04 2.37,-19.58 6.81,-1.86 13.6,-3.76 20.39,-5.69 z m 80.72,-25.26 c 9.34,-3.25 17.72,7.07 12.57,15.57 -1.26,2.13 -3.31,3.75 -5.64,4.55 l -1.53,0.54 c -6.27,2.13 -12.53,4.23 -18.82,6.3 -8.96,2.92 -17.03,-6.46 -12.82,-14.89 1.36,-2.59 3.42,-4.45 6.23,-5.35 6.18,-2.03 12.32,-4.11 18.48,-6.19 l 1.53,-0.53 z m 78.42,-30.77 c 8.47,-3.66 17.12,4.13 14.43,13.04 -1.04,2.97 -2.95,5.13 -5.83,6.43 l -10.15,4.42 -9.62,4.06 c -9.5,3.81 -18.32,-6.26 -13.28,-15.19 1.25,-2.06 2.88,-3.52 5.1,-4.45 l 9.41,-3.99 9.94,-4.32 z m 75.48,-37.38 c 4.82,-2.58 10.62,-1.27 13.81,3.18 3.67,5.17 2,12.44 -3.56,15.48 l -1.98,1.1 -9.11,4.94 -7.88,4.15 c -9.07,4.65 -18.84,-4.73 -14.53,-14 1.06,-2.17 2.58,-3.74 4.7,-4.88 l 7.67,-4.05 8.91,-4.82 1.97,-1.1 z m 71.79,-44.02 c 3.79,-2.57 8.76,-2.35 12.39,0.4 5.77,4.49 5.49,13.2 -0.58,17.29 l -5.71,3.87 -8.38,5.54 -3.84,2.48 c -9.01,5.71 -19.9,-3.95 -15.33,-13.58 0.88,-1.81 2.18,-3.3 3.89,-4.38 l 3.64,-2.35 8.2,-5.41 5.72,-3.86 z m 67.21,-50.53 c 7.3,-5.97 18.18,-0.21 17.35,9.2 -0.33,2.94 -1.56,5.34 -3.84,7.25 l -3.26,2.71 -7.56,6.14 -5.91,4.7 c -3.07,2.43 -7.15,2.92 -10.74,1.43 -7.45,-3.2 -8.76,-13.17 -2.41,-18.18 l 5.72,-4.54 7.38,-6 3.27,-2.71 z m 61.97,-56.8 c 7.52,-7.52 20.29,-0.59 17.88,10.02 -0.48,1.92 -1.41,3.61 -2.81,5 l -2.79,2.83 -6.74,6.7 -5.78,5.6 c -7.72,7.28 -20.08,0.21 -17.74,-10.12 0.52,-2.08 1.46,-3.75 3,-5.24 l 5.61,-5.45 6.58,-6.52 2.79,-2.82 z m 56.04,-62.7 c 7,-8.35 20.42,-2.31 18.73,8.56 -0.33,1.84 -1.07,3.48 -2.25,4.94 l -3.55,4.37 -5.93,7.17 -4.25,5.02 c -6.18,7.15 -17.86,3.39 -18.7,-6.03 -0.2,-2.96 0.61,-5.53 2.53,-7.81 l 4.09,-4.84 5.79,-7 3.54,-4.38 z m 49.5,-67.99 c 2.21,-3.27 5.91,-5.03 9.84,-4.68 8.01,0.71 12.35,9.88 7.86,16.52 l -4.88,7.38 -5.13,7.59 -2,2.88 c -2.44,3.5 -6.84,5.24 -11.02,4.3 -7.4,-1.65 -10.77,-10.3 -6.42,-16.51 l 1.87,-2.7 5,-7.4 4.88,-7.38 z m 42.37,-72.54 c 5.24,-9.81 20.07,-6.13 20.07,5.07 -0.04,1.77 -0.41,3.25 -1.22,4.83 l -2.04,3.91 -4.23,7.96 -3.88,7.11 c -5.49,9.62 -19.96,5.83 -19.96,-5.36 0.04,-1.8 0.49,-3.36 1.33,-4.94 l 3.78,-6.92 4.12,-7.75 2.03,-3.91 z m 34.93,-76.42 c 1.3,-3.25 4.1,-5.66 7.51,-6.43 8.36,-1.9 15.44,6.38 12.26,14.33 l -3.77,9.32 -3.43,8.23 -1.05,2.43 c -3.7,8.14 -14.83,8.62 -19.13,0.8 -1.57,-2.98 -1.7,-6.2 -0.39,-9.31 l 0.96,-2.23 3.35,-8.02 3.69,-9.12 z m 27.2,-79.64 c 1.34,-4.41 5.3,-7.51 9.94,-7.62 7.22,-0.16 12.54,6.74 10.47,13.67 l -2.11,7.27 -2.56,8.45 -1.52,4.88 c -3.45,10.56 -18.7,9.55 -20.66,-1.5 -0.26,-1.68 -0.16,-3.35 0.37,-4.97 l 1.47,-4.67 2.49,-8.25 2.11,-7.26 z m 19.17,-81.85 c 0.62,-3.35 2.86,-6.23 5.96,-7.66 7.87,-3.65 16.55,3.13 14.96,11.64 l -1.1,5.91 -1.67,8.58 -1.37,6.61 c -0.97,4.58 -4.8,8.01 -9.48,8.42 -7.11,0.61 -12.83,-5.82 -11.35,-12.8 l 1.31,-6.41 1.64,-8.38 1.1,-5.91 z m 10.99,-83.34 c 0.81,-9.73 13.48,-13.27 19.19,-5.35 1.55,2.05 2.23,4.67 2.02,7.22 l -0.43,5.14 -0.8,8.64 -0.79,7.62 c -0.22,2.19 -1.17,4.34 -2.65,5.97 -6.99,7.66 -19.58,1.98 -18.52,-8.25 l 0.77,-7.41 0.78,-8.43 0.43,-5.15 z m 2.67,-84.02 c 0,-11.69 15.86,-15 20.51,-4.16 0.51,1.28 0.75,2.53 0.78,3.9 l 0.09,4.97 0.06,8.61 -0.02,7.92 c -0.18,8.98 -10.37,13.78 -17.38,8.16 -2.54,-2.1 -3.91,-5.04 -3.91,-8.33 l 0.02,-7.7 -0.06,-8.4 -0.09,-4.97 z m -5.78,-83.85 c -0.45,-4.28 1.53,-8.24 5.23,-10.42 6.69,-3.85 14.96,0.36 15.92,8.01 l 0.64,5.35 0.92,8.51 0.74,7.53 c 0.86,10.32 -11.8,15.71 -18.63,7.97 -1.5,-1.76 -2.33,-3.69 -2.57,-6 l -0.72,-7.32 -0.9,-8.29 -0.63,-5.34 z m -14.37,-82.8 c -2.24,-10.6 10.81,-17.4 18.21,-9.53 1.34,1.48 2.13,3.01 2.59,4.97 l 1.4,6.2 1.79,8.32 1.32,6.5 c 2.03,10.83 -11.49,17.27 -18.61,8.92 -1.18,-1.44 -1.9,-2.96 -2.28,-4.78 l -1.28,-6.29 -1.74,-8.1 -1.4,-6.21 z m -23.01,-80.79 c -3.32,-10.19 8.7,-18.36 16.95,-11.53 1.5,1.29 2.63,2.91 3.25,4.8 l 2.52,7.41 2.63,8.05 1.58,4.99 c 1.08,3.58 0.27,7.39 -2.21,10.21 -5.47,6.18 -15.73,3.98 -18.14,-3.92 l -1.51,-4.77 -2.56,-7.83 -2.51,-7.41 z m -31.65,-77.64 c -1.85,-3.88 -1.15,-8.44 1.69,-11.65 5.16,-5.65 14.27,-4.35 17.56,2.55 l 4.12,8.83 3.49,7.69 1.39,3.17 c 4.32,10.23 -7.77,19.46 -16.56,12.44 -1.29,-1.09 -2.31,-2.43 -2.98,-3.99 l -1.3,-2.95 -3.38,-7.49 -4.03,-8.6 z m -40.29,-73.61 c -4.79,-7.87 1.75,-17.55 10.93,-16.09 3.1,0.64 5.48,2.19 7.18,4.88 l 1.72,2.73 4.4,7.21 5.1,8.58 c 2.2,3.87 1.78,8.67 -1.06,12.1 -4.74,5.7 -13.75,4.92 -17.43,-1.52 l -4.84,-8.16 -4.28,-7 -1.72,-2.73 z m -48.61,-68.34 c -2.41,-3.06 -2.94,-6.94 -1.56,-10.56 3.06,-7.59 13.16,-9.09 18.23,-2.68 l 3.09,3.85 5.25,6.68 4.93,6.44 c 5.29,7.13 0.26,17.07 -8.62,17.07 -3.28,-0.08 -6.39,-1.56 -8.36,-4.23 l -4.78,-6.23 -5.09,-6.48 -3.09,-3.86 z m -56.5,-61.94 c -3.5,-3.49 -4.16,-8.7 -1.7,-12.97 3.6,-5.99 11.66,-7.04 16.66,-2.18 l 4.29,4.2 6.08,6.06 4.86,4.98 c 2.26,2.33 3.33,5.59 2.9,8.79 -1.21,8.84 -12.01,12.38 -18.21,6 l -4.69,-4.8 -5.89,-5.89 -4.3,-4.19 z m -63.64,-54.51 c -9.21,-7.26 -1.88,-21.76 9.43,-18.67 1.35,0.4 2.41,0.95 3.54,1.79 l 4.64,3.51 6.9,5.37 5.46,4.37 c 7.31,5.97 3.98,17.6 -5.51,18.86 -2.96,0.27 -5.53,-0.45 -7.88,-2.31 l -5.25,-4.2 -6.69,-5.2 -4.64,-3.52 z m -69.82,-46.32 c -9.63,-5.73 -5.12,-20.54 6.26,-19.79 1.65,0.15 3.07,0.6 4.51,1.44 l 3.17,1.82 7.72,4.59 7.6,4.66 c 9.41,5.97 4.68,20.4 -6.42,19.66 -1.79,-0.16 -3.28,-0.64 -4.81,-1.57 l -7.38,-4.52 -7.48,-4.45 -3.17,-1.84 z m -74.97,-37.7 c -3.76,-1.71 -6.15,-5.23 -6.32,-9.35 -0.35,-7.79 7.87,-13.33 14.96,-10.1 l 7.19,3.13 8.44,3.82 4.04,1.88 c 9.65,4.6 7.2,19.03 -3.42,20.21 -2.03,0.17 -3.87,-0.09 -5.71,-0.97 l -3.8,-1.77 -8.2,-3.71 -7.18,-3.14 z m -78.82,-28.89 c -10.69,-3.48 -9.5,-18.94 1.73,-20.69 1.59,-0.21 3.19,-0.1 4.71,0.4 l 8.62,2.68 9.17,2.97 2.74,0.93 c 3.36,1.16 5.84,3.84 6.8,7.26 2.24,8.24 -5.7,15.67 -13.74,12.87 l -2.5,-0.85 -8.92,-2.89 -8.61,-2.68 z m -81.51,-20.27 c -3.42,-0.71 -6.23,-2.97 -7.64,-6.18 -3.44,-7.85 3.49,-16.44 11.88,-14.69 l 6.31,1.24 9.87,2.07 4.91,1.09 c 10.16,2.38 11.27,16.35 1.54,20.29 -2.02,0.77 -4.14,0.97 -6.26,0.47 l -4.67,-1.03 -9.63,-2.02 -6.31,-1.24 z m -83.27,-12.16 c -4.41,-0.46 -8.24,-3.82 -9.21,-8.16 -1.64,-7.19 4.19,-13.77 11.52,-13.01 l 9.69,1 11.72,1.36 c 9.52,1.19 12.64,13.7 4.77,19.23 -2.2,1.58 -4.89,2.22 -7.57,1.89 l -11.23,-1.31 -9.69,-1 z m -84.08,-4.61 c -10.07,-0.2 -14.25,-13.09 -6.11,-19.19 1.95,-1.41 4.14,-2.15 6.56,-2.09 l 8.84,0.14 11.11,0.29 1.57,0.06 c 10.46,0.44 14.03,14.31 5.05,19.75 -1.77,1.09 -3.87,1.61 -5.96,1.52 l -12.22,-0.33 -8.84,-0.15 z m -963.4,2436.82 c 7.79,6.93 1.88,19.88 -8.52,18.49 -2.11,-0.27 -4.06,-1.18 -5.65,-2.59 -5.37,-4.8 -10.68,-9.66 -15.9,-14.61 -3.43,-3.23 -4.27,-8.2 -2.27,-12.42 3.15,-6.45 11.67,-7.97 16.88,-3.06 5.08,4.8 10.24,9.53 15.46,14.19 v 0" /><path
         id="path20"
         style="fill:#16131a;fill-opacity:1;fill-rule:evenodd;stroke:none"
         d="m 2063.66,2878.28 c 1.99,3.15 6.16,4.08 9.31,2.08 3.15,-1.99 4.09,-6.17 2.09,-9.32 -0.76,-1.2 -268.18,-416.73 -56.96,-658.94 2.45,-2.79 2.16,-7.05 -0.63,-9.5 -2.8,-2.45 -7.06,-2.17 -9.51,0.63 -217.94,249.91 54.92,673.82 55.7,675.05" /><path
         id="path22"
         style="fill:#16131a;fill-opacity:1;fill-rule:evenodd;stroke:none"
         d="m 2843.48,2936.16 c -2,3.16 -1.05,7.32 2.11,9.3 3.14,1.98 7.3,1.03 9.28,-2.12 0.44,-0.68 153.19,-237.78 -7.92,-419.93 -2.46,-2.78 -6.72,-3.04 -9.5,-0.58 -2.78,2.46 -3.05,6.72 -0.58,9.5 154.33,174.49 7.02,403.17 6.61,403.83" /><path
         id="path24"
         style="fill:#16131a;fill-opacity:1;fill-rule:evenodd;stroke:none"
         d="m 2106.87,3158.87 -112.64,-123.84 c 0,0 53.93,-95.46 48.57,-220.64 -5.36,-125.16 -427.38,-818.98 352.27,-815.41 779.65,3.58 345.88,405.81 345.88,405.81 0,0 257.18,83.28 127.31,455.66 -129.86,372.38 -761.39,298.42 -761.39,298.42" /><path
         id="path26"
         style="fill:#141215;fill-opacity:1;fill-rule:evenodd;stroke:none"
         d="m 2748.13,2397.79 c -4.53,4.54 -7.18,7 -7.18,7 0,0 9.25,3 23.34,10.39 22.19,24.83 44.71,53.96 66.61,87.97 106.33,165.29 -6.83,392.54 -6.83,392.54 l -60.17,17.97 c 0,0 -119.82,42.91 -152,53.64 -32.18,10.74 -404.13,-12.51 -509.63,-211 -105.5,-198.49 12.02,-486.24 12.02,-486.24 0,0 438.6,14.16 463.63,15.95 18.63,1.33 90.73,29.41 170.21,111.78" /><path
         id="path28"
         style="fill:#f36063;fill-opacity:1;fill-rule:evenodd;stroke:none"
         d="m 2957.79,2289.54 c 125.26,-54.69 141.51,-169.21 157.79,-296.65 14.43,-113.02 18.95,-283.56 -10.81,-542.63 -29.76,-259.06 -503.25,341.76 -503.25,341.76 l 356.27,497.52" /><path
         id="path30"
         style="fill:#f78e73;fill-opacity:1;fill-rule:evenodd;stroke:none"
         d="m 2221.21,2292.93 -121.58,62.2 c 0,0 -128.46,-31.97 -194.19,-114.58 -65.71,-82.63 -264.76,-788.67 -272.27,-875.05 -7.51,-86.38 51,-415.441 158.04,-415.441 107.03,0 160.28,719.431 160.28,719.431 l 87.42,269.65 182.3,353.79" /><path
         id="path32"
         style="fill:#f36063;fill-opacity:1;fill-rule:evenodd;stroke:none"
         d="m 2221.21,2292.93 -121.58,62.2 c 0,0 -41.14,-10.25 -88.77,-34.1 15.75,-7.61 28.06,-27.07 26.62,-70.17 -3.75,-112.68 -175.58,-542.68 -213.13,-662.86 -37.56,-120.18 -67.6,-191.53 -67.6,-191.53 l -78.26,164.13 c -7.07,-26.52 -13.51,-51.37 -19.21,-74.01 29.28,-157.76 65.69,-374.03 70.64,-497.66 18.15,-24.078 38.62,-38.871 61.29,-38.871 107.03,0 160.28,719.431 160.28,719.431 l 87.42,269.65 182.3,353.79" /><path
         id="path34"
         style="fill:#ef2f4b;fill-opacity:1;fill-rule:evenodd;stroke:none"
         d="m 2543.47,2448.06 c 0,0 323.08,-115.15 414.32,-158.52 -0.16,-0.17 -17.44,-18.22 -37.06,-117.26 -19.71,-99.53 0,-244.12 -20.64,-386.83 -14.93,-103.12 -84.75,-624.81 -122.35,-906.368 l -796.42,64.25 c -0.24,12.547 -0.75,27.629 -1.48,44.727 65.41,-50.93 128.1,-53.2 89.3,95.571 -67.61,259.14 -54.47,709.81 -31.93,845.01 22.53,135.2 56.1,277.5 24.18,414.57 21.43,19.31 482.08,104.85 482.08,104.85" /><path
         id="path36"
         style="fill:#d9293f;fill-opacity:1;fill-rule:evenodd;stroke:none"
         d="m 2755.66,2370.42 c 80.83,-30.32 162.91,-62.23 202.13,-80.88 -0.16,-0.17 -17.44,-18.22 -37.06,-117.26 -19.71,-99.53 0,-244.12 -20.64,-386.83 -2.99,-20.65 -8.19,-58.1 -14.88,-107 -179.94,-28.04 -711.44,-88.92 -838.98,-77.62 -9.23,0.82 -18.31,2.21 -27.23,4.11 0,140.62 8.17,263.47 18.21,323.7 0.57,3.46 1.16,6.93 1.75,10.39 45.02,-132.87 611.81,-207.14 611.81,-207.14 0,0 93.99,207.88 69.57,284.87 -24.4,76.99 -137.12,74.84 -137.12,74.84 l 2.86,68.81 c 0,0 112.69,152.58 139.76,199.01 3.4,5.84 13.94,9.35 29.82,11" /><path
         id="path38"
         style="fill:#c6283c;fill-opacity:1;fill-rule:evenodd;stroke:none"
         d="m 2031.81,1888.47 c 0.5,4.55 1.01,8.93 1.53,13.13 18.16,35.73 87.26,192.93 47.87,449.57 2.15,0.67 4.41,1.33 6.86,2.03 45.29,-293.51 -50.52,-459.06 -52.76,-462.88 -0.19,-0.36 -0.45,-0.69 -0.77,-0.98 -0.78,-0.69 -1.78,-0.97 -2.73,-0.87 z m 902.36,411.71 c 2.02,-0.87 3.98,-1.73 5.9,-2.57 -15.54,-27.53 -37.43,-85.35 -57.57,-206.33 -24.12,-145 3.52,-210.39 24.68,-237.91 -0.23,-3.31 -0.47,-6.62 -0.73,-9.93 -22.7,25.75 -57.01,92.33 -30.93,249.01 19.77,118.85 42.13,178.2 58.65,207.73 z m -132.71,52.93 6.66,-2.54 c -14.35,-57.9 -33.58,-125.82 -60.43,-165.84 -24.21,-36.07 -52.48,-69.31 -93.54,-93.11 -41.01,-23.78 -94.66,-38.05 -169.56,-36.15 -65.27,1.65 -117.73,25.71 -158.34,59.88 -52.85,44.46 -85.58,106.04 -100.33,157.49 -20.63,71.98 -40.06,95.97 -46.68,102.47 l 7.88,1.74 c 9.22,-10.82 27.32,-38.42 45.62,-102.26 14.44,-50.37 46.43,-110.6 98.06,-154.04 39.48,-33.21 90.49,-56.61 153.96,-58.21 73.44,-1.86 125.88,12.04 165.85,35.2 39.92,23.15 67.51,55.64 91.2,90.92 26.37,39.31 45.43,106.92 59.65,164.45 v 0" /><path
         id="path40"
         style="fill:#f36063;fill-opacity:1;fill-rule:evenodd;stroke:none"
         d="m 2518.43,2793.68 2.43,0.02 c 70.14,0.78 128.57,-55.92 129.01,-126.06 l 1.62,-258.67 c 46.9,-17.14 103.01,-37.92 155.56,-57.99 -82.69,-178.55 -180.2,-296.54 -336.05,-262.74 -213.48,46.3 -205.88,225.55 -270.9,291.64 60.73,13.16 131.98,27.47 193.81,39.56 l -1.54,245.23 c -0.44,70.14 55.92,128.23 126.06,129.01" /><path
         id="path42"
         style="fill:#f14c52;fill-opacity:1;fill-rule:evenodd;stroke:none"
         d="m 2641.95,2710.71 c 5.03,-13.43 7.83,-27.94 7.92,-43.07 l 1.62,-258.67 c 46.9,-17.14 103.01,-37.92 155.56,-57.99 -60.81,-131.32 -129.66,-229.88 -223.83,-259.38 149.75,100.99 103.72,225.73 71.8,238.88 -31.92,13.14 -285.35,84.21 -285.35,84.21 8.21,1.61 16.3,3.2 24.24,4.75 l -1.54,245.23 c -0.25,39.59 17.6,75.34 45.81,99.11 67.53,0.63 134.79,-20.31 203.77,-53.07" /><path
         id="path44"
         style="fill:#f14c52;fill-opacity:1;fill-rule:evenodd;stroke:none"
         d="m 2806.88,3038.7 c 2.49,-0.01 4.96,-0.09 7.41,-0.26 l 0.07,-0.02 v 0.01 c 45.3,-3.37 83.92,-37.58 91.07,-84.4 8.29,-54.42 -29.11,-105.27 -83.53,-113.57 -54.42,-8.29 -105.28,29.1 -113.57,83.51 -4.83,31.64 5.78,62.06 26.2,83.61 1.37,-29.5 10.81,-64.99 48.52,-63.65 l -8.66,56.82 c -3.5,23.01 16.6,36.48 32.49,37.95" /><path
         id="path46"
         style="fill:#f14c52;fill-opacity:1;fill-rule:evenodd;stroke:none"
         d="m 2094.61,2926.34 c -2.4,-0.66 -4.76,-1.38 -7.08,-2.2 l -0.07,-0.03 0.01,0.01 c -42.85,-15.1 -71.18,-58.22 -65.83,-105.28 6.24,-54.69 55.64,-94 110.32,-87.77 54.7,6.23 94.01,55.63 87.78,110.32 -3.61,31.79 -21.81,58.38 -47.15,73.84 6.39,-28.84 6.56,-65.56 -30.19,-74.14 l -6.51,57.12 c -2.62,23.13 -25.54,30.87 -41.28,28.13" /><path
         id="path48"
         style="fill:#f78e73;fill-opacity:1;fill-rule:evenodd;stroke:none"
         d="m 2402.47,3476.33 v 0 c 186.06,24.76 358.58,-107.21 383.35,-293.27 l 40.95,-307.71 c 24.77,-186.06 -107.22,-358.57 -293.29,-383.34 v 0 c -186.03,-24.76 -358.55,107.21 -383.31,293.28 L 2109.21,3093 c -24.77,186.07 107.22,358.57 293.26,383.33" /><path
         id="path50"
         style="fill:#f36063;fill-opacity:1;fill-rule:evenodd;stroke:none"
         d="m 2402.47,3476.33 v 0 c 176.48,23.49 340.72,-94.02 378.33,-264.93 -1.81,-16.41 -6.79,-33.12 -15.58,-50.09 l -157.69,9.21 c 0,0 -103.79,-198.42 -316.97,-246.63 -57.31,-12.96 -75.29,-70.72 -63.58,-125.59 28.51,-133.64 143.23,-325.15 425.76,-266.98 -36.01,-19.9 -76.19,-33.58 -119.26,-39.31 v 0 c -186.03,-24.76 -358.55,107.22 -383.31,293.28 L 2109.21,3093 c -24.77,186.07 107.22,358.57 293.26,383.33" /><path
         id="path52"
         style="fill:#f14c52;fill-opacity:1;fill-rule:evenodd;stroke:none"
         d="m 2340.6,2798.18 c 24.5,3.73 47.4,-13.11 51.13,-37.6 3.74,-24.51 -13.1,-47.41 -37.6,-51.15 -24.5,-3.72 -47.41,13.12 -51.14,37.61 -3.73,24.5 13.11,47.4 37.61,51.14" /><path
         id="path54"
         style="fill:#f14c52;fill-opacity:1;fill-rule:evenodd;stroke:none"
         d="m 2708.49,2856.39 c 24.5,3.73 47.4,-13.12 51.14,-37.61 3.73,-24.51 -13.11,-47.39 -37.61,-51.14 -24.5,-3.73 -47.4,13.1 -51.14,37.6 -3.73,24.51 13.1,47.41 37.61,51.15" /><path
         id="path56"
         style="fill:#141215;fill-opacity:1;fill-rule:evenodd;stroke:none"
         d="m 2288.08,2976.65 c -7.01,0.86 -13.43,-4.14 -14.3,-11.15 -0.86,-7 4.14,-13.43 11.12,-14.29 11.56,-1.57 25.34,-0.87 36.75,1.04 25.1,4.18 47.8,15.39 64.18,35.26 4.49,5.43 3.72,13.56 -1.72,18.05 -5.43,4.49 -13.57,3.72 -18.06,-1.72 -18.71,-22.71 -49.81,-30.17 -77.97,-27.19" /><path
         id="path58"
         style="fill:#16131a;fill-opacity:1;fill-rule:evenodd;stroke:none"
         d="m 2853.96,2219.76 c 0,0 13.03,1.88 15.97,-8.33 2.93,-10.21 -40.26,-65.14 -43.07,-67.02 -2.82,-1.87 -88.49,8.92 -88.49,8.92 0,0 -4.52,4.23 -3.56,7.48 0.97,3.26 4.14,6.1 4.14,6.1 l 115.01,52.85" /><path
         id="path60"
         style="fill:#141215;fill-opacity:1;fill-rule:evenodd;stroke:none"
         d="m 2715.48,3076.08 c -28.01,5.07 -59.39,0.5 -80.02,-20.75 -4.92,-5.07 -13.07,-5.18 -18.14,-0.25 -5.05,4.93 -5.17,13.06 -0.25,18.13 17.95,18.49 41.47,27.82 66.84,29.94 11.52,0.97 25.32,0.55 36.68,-1.95 6.92,-1.42 11.38,-8.22 9.95,-15.15 -1.44,-6.92 -8.23,-11.37 -15.06,-9.97" /><path
         id="path62"
         style="fill:#16131a;fill-opacity:1;fill-rule:evenodd;stroke:none"
         d="m 2193.88,2938.91 c 0,0 3.01,-22.62 5.8,-43.62 2.8,-20.99 -37.5,-77.18 -53.6,-79.32 l -10.2,76.64 c 0,0 -11.51,34.24 -54.9,28.45 -153.54,135.38 -168.32,380.72 -42.95,525.64 125.38,144.91 429.6,193.62 485.26,182.95 55.67,-10.68 122.62,-93.8 122.62,-93.8 0,0 39.86,46.4 84.65,31 44.79,-15.41 220.58,-261.6 229.4,-327.83 8.82,-66.23 -101.92,-214.53 -101.92,-214.53 -43.4,-5.77 -45.55,-41.82 -45.55,-41.82 l 6.34,-47.65 c -16.1,-2.15 -27.98,18.23 -30.77,39.23 -2.81,20.99 -5.81,43.61 -5.81,43.61 -141.61,41.58 -218.41,214.46 -218.41,214.46 0,0 -147.56,-296.34 -369.96,-293.41" /><path
         id="path64"
         style="fill:#1d1c30;fill-opacity:1;fill-rule:evenodd;stroke:none"
         d="m 1953.81,3208.83 c -0.22,62.78 14.36,124.96 43.8,179.28 138.84,-107.57 363.11,-179.59 549.91,233.02 12.04,-5.91 24.08,-14.04 35.4,-22.96 -72.36,-209.83 -257.19,-576.26 -629.11,-389.34" /><path
         id="path66"
         style="fill:#141215;fill-opacity:1;fill-rule:evenodd;stroke:none"
         d="m 2193.88,2938.91 c 0,0 3.01,-22.62 5.8,-43.62 2.8,-20.99 -37.5,-77.18 -53.6,-79.32 l -10.2,76.64 c 0,0 -11.51,34.24 -54.9,28.45 -60.1,52.98 -98.92,122.81 -116.43,196.86 0.2,-0.14 263.01,-182.68 586.55,156.95 0,0 148.03,-230.86 364.6,-162.09 -27.57,-47.98 -57.66,-88.29 -57.66,-88.29 -43.4,-5.77 -45.55,-41.82 -45.55,-41.82 l 6.35,-47.65 c -16.11,-2.15 -27.99,18.23 -30.78,39.23 -2.8,20.99 -5.81,43.61 -5.81,43.61 -141.61,41.58 -218.41,214.46 -218.41,214.46 0,0 -147.56,-296.34 -369.96,-293.41" /><path
         id="path68"
         style="fill:#f36063;fill-opacity:1;fill-rule:evenodd;stroke:none"
         d="m 2845.95,2482.58 22.15,-6.04 c 0,0 12.97,115.59 12.86,126.79 -0.14,11.19 -5.85,27.3 -14.39,46.18 -8.54,18.88 -39.87,90.24 -41.55,92.52 -1.69,2.29 -21.94,-15.3 -12.81,-46.56 9.13,-31.27 24.6,-73.59 24.46,-82.63 -0.14,-9.05 -20.83,-89.12 -20.83,-89.12 l 30.11,-41.14" /><path
         id="path70"
         style="fill:#f78e73;fill-opacity:1;fill-rule:evenodd;stroke:none"
         d="m 2868.16,2481.57 c -0.05,10.58 -3.6,29.45 -25.81,42.91 -22.2,13.47 -74.63,54.99 -85.81,59.85 -11.18,4.86 -23.98,2.66 -37.26,-5.81 -13.28,-8.49 -55.22,-37.29 -64.06,-46.48 -8.83,-9.18 -30.85,-65.74 -33.55,-71.68 -2.7,-5.94 19.45,-11.32 37.12,2.06 0,0 -9.25,-18.56 -12.22,-24.85 -2.97,-6.28 -7.06,-54.11 -7.42,-63.81 -0.37,-9.7 26.44,-4.85 35.53,17.44 0,0 -1.46,-16.05 -1.47,-21.04 -0.01,-4.98 15.33,-3.11 15.33,-3.11 0,0 17.68,-95.91 21.65,-107.88 3.95,-11.96 156.23,-559.49 156.23,-559.49 l 220.26,13.3 c 0,0 -240.28,537.37 -241.87,545.27 -13.62,67.62 23.64,166.49 23.35,223.32" /><path
         id="path72"
         style="fill:#f36063;fill-opacity:1;fill-rule:evenodd;stroke:none"
         d="m 2688.54,2367.06 0.94,-5.07 v 0 l 0.34,-1.84 0.03,-0.18 0.02,-0.08 0.05,-0.26 0.05,-0.26 0.05,-0.28 0.05,-0.23 v -0.04 l 0.06,-0.28 0.09,-0.56 0.06,-0.29 v -0.02 l 0.17,-0.87 0.06,-0.31 c 4.71,-25.26 16.53,-87.8 19.68,-97.32 2.93,-8.88 87.42,-312.24 130.89,-468.45 47.32,18.97 84.11,41.4 84.11,41.4 0,0 -170.41,396.67 -174.39,412.3 -3.97,15.63 5.39,28.03 2.1,32.25 -3.28,4.23 -16.44,10.33 -19.72,21.6 -3.28,11.27 -11.27,51.17 -6.1,67.13 3.98,12.32 16.92,10.81 22.63,9.48 6.51,-1.83 12.75,-3.67 16.71,-4.19 8.54,-1.13 7.9,4.09 7.9,4.09 1.88,17.66 19.03,42.81 19.03,42.81 -9.34,5.08 -23.81,29.15 -23.81,29.15 -9.54,4.12 -17.03,9.42 -24.48,4.16 -7.46,-5.28 -28.18,-26.81 -28.25,-28.69 -0.08,-1.88 -2.16,-22.99 -5.73,-37.13 -3.55,-14.14 -22.54,-18.02 -22.54,-18.02" /><path
         id="path74"
         style="fill:#16131a;fill-opacity:1;fill-rule:evenodd;stroke:none"
         d="m 1703.28,854.102 h 1596.81 c 24.54,0 44.6,21.578 44.6,47.98 v 0.008 c 0,26.39 -20.07,47.969 -44.6,47.969 H 1703.28 c -24.54,0 -44.6,-21.598 -44.6,-47.969 v -0.008 c 0,-26.383 20.06,-47.98 44.6,-47.98" /><path
         id="path76"
         style="fill:#16131a;fill-opacity:1;fill-rule:evenodd;stroke:none"
         d="M 3329.05,1871.81 H 1674.31 c -24.62,0 -41.71,-20.13 -38.01,-44.74 l 126.47,-839.98 c 3.7,-24.61 26.88,-44.75 51.48,-44.75 h 245.72 883.42 245.71 c 24.61,0 47.78,20.14 51.49,44.75 l 126.47,839.98 c 3.71,24.61 -13.4,44.74 -38.01,44.74" /><path
         id="path78"
         style="fill:#1d1c30;fill-opacity:1;fill-rule:evenodd;stroke:none"
         d="M 3292.26,1832.11 H 1711.11 c -23.52,0 -39.86,-19.24 -36.32,-42.74 l 120.85,-802.62 c 3.54,-23.52 25.68,-42.762 49.19,-42.762 h 234.79 844.12 234.79 c 23.51,0 45.65,19.242 49.19,42.762 l 120.85,802.62 c 3.54,23.5 -12.8,42.74 -36.31,42.74" /><path
         id="path80"
         style="fill:#16131a;fill-opacity:1;fill-rule:evenodd;stroke:none"
         d="m 1764.65,1192.6 30.99,-205.85 c 3.54,-23.52 25.68,-42.762 49.19,-42.762 h 234.79 844.12 234.79 c 23.51,0 45.65,19.242 49.19,42.762 l 120.85,802.62 c 2.85,18.88 -7.14,35.01 -23.37,40.62 C 3124.21,1517.78 2679.46,1006.4 1764.65,1192.6" /><path
         id="path82"
         style="fill:#16131a;fill-opacity:1;fill-rule:evenodd;stroke:none"
         d="m 2501.68,1157.35 c 96.87,0 175.87,65.95 175.87,146.81 0,80.85 -79,146.8 -175.87,146.8 -96.86,0 -175.86,-65.95 -175.86,-146.8 0,-80.86 79,-146.81 175.86,-146.81" /><path
         id="path84"
         style="fill:#ffffff;fill-opacity:1;fill-rule:evenodd;stroke:none"
         d="m 2610.24,1239.11 -61.4,33.8 -102.39,-70.35 c 16.83,-6.4 35.53,-9.95 55.23,-9.95 44.73,0 84.32,18.34 108.56,46.5 z m -108.56,176.6 c 49.2,0 92.18,-22.19 115.37,-55.24 l -204.46,-139.44 c -27.33,20.42 -44.54,50.09 -44.54,83.13 0,61.6 59.83,111.55 133.63,111.55 v 0" /><path
         id="path86"
         style="fill:#141215;fill-opacity:1;fill-rule:evenodd;stroke:none"
         d="m 2679.61,2983.66 v 0 c -15.51,-2.47 -26.16,-17.16 -23.69,-32.64 l 5.85,-36.75 c 2.46,-15.5 17.16,-26.15 32.65,-23.69 v 0 c 15.49,2.47 26.17,17.15 23.69,32.66 l -5.84,36.74 c -2.48,15.5 -17.16,26.15 -32.66,23.68" /><path
         id="path88"
         style="fill:#141215;fill-opacity:1;fill-rule:evenodd;stroke:none"
         d="m 2337.78,2931.87 v 0 c -15.5,-2.46 -26.15,-17.15 -23.69,-32.65 l 5.85,-36.74 c 2.47,-15.49 17.15,-26.16 32.66,-23.69 v 0 c 15.49,2.46 26.15,17.17 23.67,32.66 l -5.84,36.74 c -2.46,15.49 -17.16,26.16 -32.65,23.68" /><path
         id="path90"
         style="fill:#f36063;fill-opacity:1;fill-rule:evenodd;stroke:none"
         d="m 2649.62,2730.58 c 4.46,-3.71 5.36,-10.11 2.02,-14.3 -3.35,-4.19 -9.68,-4.58 -14.14,-0.87 -0.1,0.09 -34.19,29.83 -94.95,-26.12 -3.94,-3.64 -10.34,-3.14 -14.3,1.13 -3.96,4.26 -3.98,10.65 -0.05,14.29 73.35,67.55 121.28,25.98 121.42,25.87" /><path
         id="path92"
         style="fill:#1d1c30;fill-opacity:1;fill-rule:evenodd;stroke:none"
         d="m 2862.09,2217.82 c 0,0 4.42,-0.53 5.13,-6.16 0.7,-5.63 -33.35,-49.88 -128.64,-53.23 0,0 -2.28,0.71 -2.63,2.18 -0.36,1.46 1.15,3.09 1.15,3.09 l -0.49,1.78 c 0,0 -3.43,-2.46 -3.43,-5.4 0,-2.93 14.09,-61.79 16.91,-76.58 2.81,-14.79 31.77,-11.37 56.26,-5.44 24.48,5.91 82.86,26.36 98.19,58.01 0,0 1.88,7.98 -0.47,14.8 -2.35,6.81 -31.92,61.61 -33.45,64.9 -1.52,3.28 -6.2,4.95 -9.5,4.27 l 0.97,-2.22" /><path
         id="path94"
         style="fill:#16131a;fill-opacity:1;fill-rule:evenodd;stroke:none"
         d="m 2783.82,2163.67 c -13.24,-2.74 -28.26,-4.65 -45.24,-5.24 0,0 -2.28,0.71 -2.63,2.18 -0.36,1.46 1.15,3.09 1.15,3.09 l -0.49,1.78 c 0,0 -3.43,-2.46 -3.43,-5.4 0,-2.93 14.09,-61.79 16.91,-76.58 2.81,-14.79 31.77,-11.37 56.26,-5.44 3.47,0.84 7.65,1.97 12.29,3.4 l -34.82,82.2 v 0.01" /><path
         id="path96"
         style="fill:#16131a;fill-opacity:1;fill-rule:evenodd;stroke:none"
         d="M 1181.21,808.641 H 3818.9 c 33.12,0 60.23,-27.11 60.23,-60.243 v 0 c 0,-33.128 -27.11,-60.238 -60.23,-60.238 H 1181.21 c -33.13,0 -60.24,27.102 -60.24,60.238 v 0 c 0,33.133 27.11,60.243 60.24,60.243" /><path
         id="path98"
         style="fill:#c47150;fill-opacity:1;fill-rule:evenodd;stroke:none"
         d="m 1052.97,902.09 h 2894.16 c 42.25,0 76.83,-34.578 76.83,-76.84 v -0.012 c 0,-42.246 -34.58,-76.84 -76.83,-76.84 H 1052.97 c -42.26,0 -76.833,34.582 -76.833,76.84 v 0.012 c 0,42.262 34.573,76.84 76.833,76.84" /><path
         id="path100"
         style="fill:#974c3c;fill-opacity:1;fill-rule:evenodd;stroke:none"
         d="m 2807.18,902.09 h 159.88 V 748.398 H 2807.18 V 902.09" /><path
         id="path102"
         style="fill:#974c3c;fill-opacity:1;fill-rule:evenodd;stroke:none"
         d="m 3050.12,902.09 h 83.05 V 748.398 h -83.05 V 902.09" /><path
         id="path104"
         style="fill:#974c3c;fill-opacity:1;fill-rule:evenodd;stroke:none"
         d="m 3220.39,902.09 h 41.53 V 748.398 h -41.53 V 902.09" /><path
         id="path106"
         style="fill:#974c3c;fill-opacity:1;fill-rule:evenodd;stroke:none"
         d="M 3404.15,902.09 H 3583 V 748.398 H 3404.15 V 902.09" /><path
         id="path108"
         style="fill:#974c3c;fill-opacity:1;fill-rule:evenodd;stroke:none"
         d="m 3717.83,902.09 h 89.43 V 748.398 h -89.43 V 902.09" /><path
         id="path110"
         style="fill:#dc846f;fill-opacity:1;fill-rule:evenodd;stroke:none"
         d="M 1059.18,877.141 H 2465.8 c 25.11,0 45.66,-20.559 45.66,-45.672 v -0.008 c 0,-25.121 -20.55,-45.68 -45.66,-45.68 H 1059.18 c -25.11,0 -45.67,20.559 -45.67,45.68 v 0.008 c 0,25.113 20.55,45.672 45.67,45.672" /><path
         id="path112"
         style="fill:#bee7ed;fill-opacity:1;fill-rule:evenodd;stroke:none"
         d="m 1991.84,4015.91 32.88,-189.27 426.69,343.2 -445.54,-109.56 -14.03,-44.37" /><path
         id="path114"
         style="fill:#def3f9;fill-opacity:1;fill-rule:evenodd;stroke:none"
         d="m 2024.72,3826.64 164.55,132.35 c 2.19,15.48 7.69,33.56 7.69,33.56 l -138.25,-37.15 -33.99,-128.76" /><path
         id="path116"
         style="fill:#ffffff;fill-opacity:1;fill-rule:evenodd;stroke:none"
         d="m 2451.41,4169.84 -577.05,-106.73 117.48,-47.2 z" /><path
         id="path118"
         style="fill:#ffffff;fill-opacity:1;fill-rule:evenodd;stroke:none"
         d="M 2451.41,4169.84 2192.09,3825.31 2058.71,3955.4 Z" /><path
         id="path120"
         style="fill:#8664BA;fill-opacity:1;fill-rule:evenodd;stroke:none"
         d="m 970.703,2396.94 c 56.187,13.38 114.727,20.5 174.857,20.5 v 0 c 83.81,0 152.38,68.58 152.38,152.38 v 0 c 0,7.3 -0.52,14.48 -1.53,21.5 h 240.98 c 36.36,0 66.11,-29.75 66.11,-66.11 v -272.62 -20.17 -173.54 c 0,-3.05 -1.74,-5.66 -4.55,-6.82 -2.82,-1.17 -5.89,-0.56 -8.05,1.59 l -112.65,112.66 h -441.44 c -36.36,0 -66.107,29.74 -66.107,66.11 v 164.52" /><path
         id="path122"
         style="fill:#A589D1;fill-opacity:1;fill-rule:evenodd;stroke:none"
         d="m 1011.67,2616.46 h 500.58 c 36.36,0 66.11,-29.74 66.11,-66.1 v -272.64 -20.16 -173.54 c 0,-3.05 -1.74,-5.65 -4.56,-6.82 -2.82,-1.16 -5.88,-0.56 -8.04,1.6 l -112.65,112.66 h -441.44 c -36.361,0 -66.107,29.74 -66.107,66.1 v 292.8 c 0,36.36 29.746,66.1 66.107,66.1" /><path
         id="path124"
         style="fill:#ffffff;fill-opacity:1;fill-rule:evenodd;stroke:none"
         d="m 1414.28,2476.14 -85.32,0.33 c -1.6,0 -3.21,0.38 -4.73,1.15 l -146.87,74.99 -0.96,-267.24 147.12,73.7 c 1.48,0.8 3.17,1.26 4.98,1.25 l 84.41,-0.33 1.12,0.04 c 15.18,0 29.03,6.42 39.11,16.75 10.01,10.27 16.33,24.38 16.61,39.95 l -0.03,1.08 c 0,16.08 -6.27,30.69 -16.4,41.25 -10.05,10.49 -23.86,17.02 -39.04,17.08 z m -82.82,21.1 82.82,-0.33 c 21.14,-0.07 40.24,-9.05 54.03,-23.42 13.75,-14.36 22.26,-34.08 22.26,-55.68 v -0.28 c 0,-0.34 -0.02,-0.68 -0.05,-1.03 -0.34,-21.14 -8.9,-40.29 -22.48,-54.21 -13.89,-14.27 -33.03,-23.11 -54.01,-23.11 h -0.25 c -0.32,0 -0.64,0.02 -0.95,0.05 l -81.94,0.32 -146.07,-73.17 c -3.24,-1.63 -6.66,-2.35 -10.06,-2.15 -3.44,0.19 -6.78,1.29 -9.8,3.26 -3,1.95 -5.36,4.55 -6.96,7.58 -1.56,2.95 -2.38,6.28 -2.37,9.82 l 0.97,268.27 c 0.01,3.61 0.86,6.97 2.45,9.91 1.63,3.02 3.99,5.58 6.99,7.51 3.04,1.94 6.39,3.01 9.85,3.18 3.44,0.18 6.86,-0.55 10.05,-2.18 l 0.78,-0.44 144.74,-73.9 v 0" /><path
         id="path126"
         style="fill:#ffffff;fill-opacity:1;fill-rule:evenodd;stroke:none"
         d="m 1432.68,2352.39 v -93.5 c 0,-18.33 -15,-33.33 -33.33,-33.33 v 0 c -18.33,0 -33.33,15 -33.33,33.33 v 90.9 l 47.76,-0.18 c 6.55,-0.03 12.9,0.95 18.9,2.78" /><path
         id="path128"
         style="fill:#ffffff;fill-opacity:1;fill-rule:evenodd;stroke:none"
         d="m 1344.41,2349.81 h 15.64 v 136.97 h -15.64 v -136.97" /><path
         id="path130"
         style="fill:#ffffff;fill-opacity:1;fill-rule:evenodd;stroke:none"
         d="m 1394.52,2349.81 h 15.64 v 136.97 h -15.64 v -136.97" /><path
         id="path132"
         style="fill:#ffffff;fill-opacity:1;fill-rule:evenodd;stroke:none"
         d="m 1122,2395.26 c 5.67,0.97 11.05,-2.84 12.01,-8.5 0.97,-5.67 -2.84,-11.05 -8.5,-12.01 l -79.99,-13.93 c -5.67,-0.97 -11.05,2.84 -12.02,8.51 -0.97,5.66 2.84,11.04 8.52,12.01 z m 6.28,127.34 c 5.17,-2.49 7.34,-8.71 4.84,-13.89 -2.5,-5.17 -8.71,-7.33 -13.89,-4.84 l -60.23,29.08 c -5.17,2.49 -7.34,8.71 -4.84,13.89 2.5,5.16 8.71,7.34 13.88,4.84 l 60.24,-29.08 z m -9.05,-188.48 c 5.18,2.49 11.39,0.32 13.89,-4.85 2.5,-5.17 0.33,-11.39 -4.84,-13.88 l -52.7,-25.44 c -5.17,-2.5 -11.39,-0.33 -13.89,4.84 -2.49,5.17 -0.32,11.39 4.85,13.89 l 52.69,25.44 z m 6.28,129.12 c 5.66,-0.96 9.47,-6.35 8.5,-12.01 -0.96,-5.66 -6.34,-9.47 -12.01,-8.52 l -79.98,13.94 c -5.68,0.96 -9.49,6.35 -8.52,12.01 0.97,5.67 6.35,9.47 12.02,8.51 l 79.99,-13.93 v 0" /><path
         id="path134"
         style="fill:#8664BA;fill-opacity:1;fill-rule:evenodd;stroke:none"
         d="m 3800.17,3808.16 h -520.8 c -37.84,0 -68.78,-30.94 -68.78,-68.78 v -283.63 -20.98 -180.55 c 0,-3.18 1.8,-5.88 4.74,-7.1 2.93,-1.21 6.13,-0.58 8.36,1.67 l 117.21,117.2 h 459.27 c 37.82,0 68.77,30.94 68.77,68.78 v 304.61 c 0,37.84 -30.95,68.78 -68.77,68.78" /><path
         id="path136"
         style="fill:#A589D1;fill-opacity:1;fill-rule:evenodd;stroke:none"
         d="m 3770.26,3808.16 h -520.79 c -37.83,0 -68.78,-30.94 -68.78,-68.78 v -283.63 -20.98 -180.55 c 0,-3.18 1.81,-5.88 4.74,-7.1 2.93,-1.21 6.12,-0.58 8.37,1.67 l 117.2,117.2 h 459.26 c 37.84,0 68.78,30.94 68.78,68.78 v 304.61 c 0,37.84 -30.94,68.78 -68.78,68.78" /><path
         id="path138"
         style="fill:#8664BA;fill-opacity:1;fill-rule:evenodd;stroke:none"
         d="m 3379.83,3596.52 c 27.3,0 49.55,22.27 49.55,49.55 0,27.3 -22.25,49.56 -49.55,49.56 -27.29,0 -49.56,-22.26 -49.56,-49.56 0,-27.28 22.27,-49.55 49.56,-49.55" /><path
         id="path140"
         style="fill:#8664BA;fill-opacity:1;fill-rule:evenodd;stroke:none"
         d="m 3379.83,3580.83 v 0 c 38.65,0 70.27,-31.62 70.27,-70.26 v -30.23 -18.43 -19.89 c 0,-4.32 -3.54,-7.86 -7.87,-7.86 h -124.81 c -4.31,0 -7.85,3.54 -7.85,7.86 v 19.89 18.43 30.23 c 0,38.64 31.62,70.26 70.26,70.26" /><path
         id="path142"
         style="fill:#8664BA;fill-opacity:1;fill-rule:evenodd;stroke:none"
         d="m 3639.9,3596.52 c 27.3,0 49.55,22.27 49.55,49.55 0,27.3 -22.25,49.56 -49.55,49.56 -27.28,0 -49.55,-22.26 -49.55,-49.56 0,-27.28 22.27,-49.55 49.55,-49.55" /><path
         id="path144"
         style="fill:#8664BA;fill-opacity:1;fill-rule:evenodd;stroke:none"
         d="m 3639.9,3580.83 v 0 c 38.64,0 70.27,-31.62 70.27,-70.26 v -30.23 -18.43 -19.89 c 0,-4.32 -3.54,-7.86 -7.87,-7.86 h -124.8 c -4.33,0 -7.85,3.54 -7.85,7.86 v 19.89 18.43 30.23 c 0,38.64 31.61,70.26 70.25,70.26" /><path
         id="path146"
         style="fill:#ffffff;fill-opacity:1;fill-rule:evenodd;stroke:none"
         d="m 3509.87,3629.46 c 32.84,0 59.6,26.78 59.6,59.61 0,32.82 -26.76,59.6 -59.6,59.6 -32.83,0 -59.61,-26.78 -59.61,-59.6 0,-32.83 26.78,-59.61 59.61,-59.61" /><path
         id="path148"
         style="fill:#ffffff;fill-opacity:1;fill-rule:evenodd;stroke:none"
         d="m 3509.87,3610.58 v 0 c 46.49,0 84.51,-38.03 84.51,-84.52 v -36.34 -22.17 -23.94 c 0,-5.2 -4.24,-9.45 -9.45,-9.45 H 3434.8 c -5.2,0 -9.45,4.25 -9.45,9.45 v 23.94 22.17 36.34 c 0,46.49 38.04,84.52 84.52,84.52" /><path
         id="path150"
         style="fill:#ffffff;fill-opacity:1;fill-rule:evenodd;stroke:none"
         d="m 4158.84,2092.03 c -15.59,-3.63 -31.46,-8.9 -45.76,-16.31 2.98,-3.55 6.12,-6.98 9.41,-10.27 18.65,-18.66 41.6,-32.33 66.75,-39.79 -7.13,8.91 -12.89,19.15 -17.48,29.21 -5.42,11.92 -9.63,24.48 -12.92,37.16 z m 196.58,-16.31 c -14.3,7.4 -30.17,12.67 -45.76,16.31 -3.29,-12.68 -7.5,-25.24 -12.91,-37.15 -4.59,-10.08 -10.36,-20.31 -17.49,-29.22 25.14,7.46 48.09,21.13 66.76,39.79 3.28,3.29 6.41,6.72 9.4,10.27 z m -43.69,178.2 c 16.62,4.07 33.78,10.03 48.7,18.51 -4.41,5.84 -9.24,11.38 -14.41,16.56 -18.67,18.66 -41.61,32.34 -66.75,39.8 7.12,-8.91 12.89,-19.15 17.48,-29.21 6.6,-14.52 11.44,-30.07 14.98,-45.66 z m -203.66,18.51 c 14.92,-8.48 32.08,-14.44 48.7,-18.51 3.53,15.59 8.38,31.14 15,45.66 4.58,10.06 10.34,20.3 17.47,29.21 -25.15,-7.46 -48.1,-21.13 -66.75,-39.8 -5.19,-5.18 -10.01,-10.72 -14.42,-16.56 z m 116.74,-27.28 v 88.42 c -16.79,-6.09 -29.18,-27.07 -35.9,-41.81 -6.04,-13.25 -10.45,-27.48 -13.69,-41.73 16.35,-2.88 32.99,-4.44 49.59,-4.88 z m 0,-224.27 v 79.4 c -15.88,-0.41 -31.8,-1.85 -47.47,-4.5 2.97,-11.3 6.74,-22.49 11.58,-33.08 6.71,-14.76 19.1,-35.73 35.89,-41.82 z m 18.88,79.4 v -79.4 c 16.8,6.1 29.18,27.07 35.9,41.82 4.82,10.59 8.59,21.78 11.56,33.08 -15.66,2.65 -31.58,4.09 -47.46,4.5 z m 0,233.29 v -88.42 c 16.59,0.44 33.23,2 49.58,4.88 -3.23,14.25 -7.64,28.48 -13.68,41.73 -6.72,14.74 -19.1,35.72 -35.9,41.81 z m 76.12,-146.9 h 72.22 c -1.45,24.72 -8.65,48.62 -21.11,70.02 -16.98,-9.88 -36.55,-16.71 -55.59,-21.31 2.64,-16.08 4.08,-32.41 4.48,-48.71 z m -22.95,44.84 c -17.53,-3.12 -35.37,-4.8 -53.17,-5.24 v -39.6 h 57.25 c -0.38,15 -1.7,30.02 -4.08,44.84 z m -125.21,0 c -2.38,-14.82 -3.7,-29.84 -4.08,-44.84 h 57.24 v 39.6 c -17.8,0.44 -35.64,2.12 -53.16,5.24 z m -95.19,-44.84 h 72.22 c 0.4,16.3 1.85,32.63 4.48,48.71 -19.06,4.61 -38.66,11.45 -55.57,21.31 -12.47,-21.4 -19.67,-45.3 -21.13,-70.02 z m 72.22,-18.89 h -72.22 c 1.62,-27.39 10.27,-53.73 25.25,-76.73 16.44,8.9 34.87,15.14 52.99,19.38 -3.63,18.86 -5.54,38.15 -6.02,57.35 z m 76.13,0 h -57.24 c 0.45,-17.93 2.23,-35.95 5.61,-53.58 17.03,2.95 34.35,4.55 51.63,4.97 v 48.61 z m 76.13,0 h -57.25 v -48.61 c 17.29,-0.42 34.6,-2.02 51.63,-4.97 3.37,17.63 5.16,35.65 5.62,53.58 z m 91.09,0 h -72.21 c -0.47,-19.2 -2.4,-38.49 -6.02,-57.35 18.11,-4.24 36.54,-10.48 52.99,-19.38 14.98,23 23.63,49.34 25.24,76.73 z m -157.78,186.39 c 47.09,0 91.82,-18.55 125.12,-51.83 33.29,-33.29 51.82,-78.03 51.82,-125.11 0,-47.09 -18.53,-91.84 -51.82,-125.12 -33.3,-33.29 -78.03,-51.83 -125.12,-51.83 -47.09,0 -91.83,18.54 -125.12,51.83 -33.28,33.28 -51.83,78.03 -51.83,125.12 0,47.08 18.55,91.82 51.83,125.11 33.29,33.28 78.03,51.83 125.12,51.83 v 0" /><path
         id="path152"
         style="fill:#ffffff;fill-opacity:1;fill-rule:evenodd;stroke:none"
         d="m 751.008,3148.05 h -35.449 c -0.571,0 -1.051,-0.16 -1.356,-0.43 l -0.226,-0.25 c -0.418,-0.41 -0.664,-0.97 -0.664,-1.56 v -111.95 c 0,-0.61 0.246,-1.16 0.664,-1.58 0.425,-0.42 0.98,-0.67 1.582,-0.67 h 35.449 c 0.562,0 1.039,0.15 1.336,0.41 l 0.238,0.26 c 0.414,0.42 0.664,0.98 0.664,1.58 v 111.95 c 0,0.6 -0.254,1.16 -0.672,1.58 -0.418,0.41 -0.976,0.66 -1.566,0.66 z m 22.062,-94.56 c 8.938,-9.02 23.934,-20.84 36.692,-20.84 h 77.988 c 11.344,0 20.566,7.73 22.73,18.92 0.618,2.97 2.547,5.49 5.266,6.85 7.199,3.6 7.414,15.44 6.383,22.05 -0.824,3.81 0.68,7.69 3.824,10.01 9.402,6.92 6.219,21.97 2.192,30.91 -1.215,2.23 -1.489,4.77 -0.832,7.23 0.949,3.54 1.675,7.34 1.675,11.01 0,3.23 -0.586,6.81 -2.793,9.33 -1.859,2.11 -4.679,3.34 -7.351,4.07 -3.004,0.81 -6.223,1.09 -9.317,1.09 H 866.98 c -9.496,0 -17.183,3.14 -21.046,12.45 -4.446,10.73 -0.297,26.86 2.988,37.38 1.574,5.04 2.422,10.27 2.43,15.56 0.015,7.46 -1.739,15.15 -5.434,21.67 -1.152,2.03 -4.359,6.87 -6.809,7.9 H 832.5 c -0.242,-12.92 -1.133,-26.29 -4.602,-38.66 -4.64,-16.55 -13.5,-29.6 -28.894,-37.89 -14.672,-7.9 -23.43,-27.09 -25.934,-43.04 v -76 z m -8.882,109.98 c 5.98,10.93 14.281,20.49 25.425,26.49 10.446,5.62 16.09,14.62 19.227,25.8 3.762,13.45 3.918,29.32 3.918,43.23 0,5.47 4.437,9.91 9.914,9.91 h 16.961 c 1.734,0 3.449,-0.31 5.097,-0.81 7.844,-2.46 14.489,-10.25 18.399,-17.15 5.379,-9.48 8.008,-20.57 8.023,-31.43 0.008,-7.28 -1.156,-14.51 -3.324,-21.45 -1.512,-4.82 -5.68,-18.9 -3.742,-23.71 0.488,-0.36 2.309,-0.4 2.894,-0.4 h 42.547 c 4.844,0 9.758,-0.53 14.442,-1.79 6.578,-1.77 12.57,-5.01 17.105,-10.17 5.524,-6.3 7.735,-14.1 7.735,-22.36 0,-4.29 -0.59,-8.59 -1.536,-12.78 6.133,-15.81 7.368,-35.44 -5.089,-48.38 0.769,-13.07 -2.457,-27.32 -13.536,-35.28 -6.046,-18.42 -20.843,-30.37 -40.898,-30.37 h -77.988 c -13.321,0 -26.633,7.06 -37.465,15.24 -1.02,-3.69 -2.996,-7.09 -5.828,-9.93 l -0.348,-0.31 c -4.094,-3.86 -9.476,-6.03 -15.113,-6.03 h -35.449 c -5.868,0 -11.454,2.32 -15.598,6.47 -4.141,4.14 -6.469,9.73 -6.469,15.6 v 111.95 c 0,5.86 2.328,11.45 6.613,15.72 l 0.329,0.3 c 4.097,3.87 9.484,6.03 15.125,6.03 h 35.449 c 4.793,0 9.39,-1.56 13.18,-4.39 v 0" /><path
         id="path154"
         style="fill:#ffffff;fill-opacity:1;fill-rule:evenodd;stroke:none"
         d="m 3586.3,3926.09 h 30.05 c 7.22,0 13.14,5.92 13.14,13.15 v 30.05 c 0,7.22 -5.92,13.14 -13.14,13.14 h -30.05 c -7.24,0 -13.15,-5.92 -13.15,-13.14 v -30.05 c 0,-7.23 5.91,-13.15 13.15,-13.15" /><path
         id="path156"
         style="fill:#87c3d8;fill-opacity:1;fill-rule:evenodd;stroke:none"
         d="m 3690.51,3926.09 h 30.05 c 7.23,0 13.14,5.92 13.14,13.15 v 30.05 c 0,7.22 -5.91,13.14 -13.14,13.14 h -30.05 c -7.23,0 -13.15,-5.92 -13.15,-13.14 v -30.05 c 0,-7.23 5.92,-13.15 13.15,-13.15" /><path
         id="path158"
         style="fill:#ffffff;fill-opacity:1;fill-rule:evenodd;stroke:none"
         d="m 3794.72,3926.09 h 30.05 c 7.23,0 13.14,5.92 13.14,13.15 v 30.05 c 0,7.22 -5.91,13.14 -13.14,13.14 h -30.05 c -7.23,0 -13.14,-5.92 -13.14,-13.14 v -30.05 c 0,-7.23 5.91,-13.15 13.14,-13.15" /><path
         id="path160"
         style="fill:#87c3d8;fill-opacity:1;fill-rule:evenodd;stroke:none"
         d="m 3898.94,3926.09 h 30.04 c 7.23,0 13.15,5.92 13.15,13.15 v 30.05 c 0,7.22 -5.92,13.14 -13.15,13.14 h -30.04 c -7.23,0 -13.15,-5.92 -13.15,-13.14 v -30.05 c 0,-7.23 5.92,-13.15 13.15,-13.15" /><path
         id="path162"
         style="fill:#ffffff;fill-opacity:1;fill-rule:evenodd;stroke:none"
         d="m 4003.14,3926.09 h 30.05 c 7.24,0 13.15,5.92 13.15,13.15 v 30.05 c 0,7.22 -5.91,13.14 -13.15,13.14 h -30.05 c -7.22,0 -13.13,-5.92 -13.13,-13.14 v -30.05 c 0,-7.23 5.91,-13.15 13.13,-13.15" /><path
         id="path164"
         style="fill:#ffffff;fill-opacity:1;fill-rule:evenodd;stroke:none"
         d="m 4107.35,3926.09 h 30.06 c 7.23,0 13.15,5.92 13.15,13.15 v 30.05 c 0,7.22 -5.92,13.14 -13.15,13.14 h -30.06 c -7.22,0 -13.13,-5.92 -13.13,-13.14 v -30.05 c 0,-7.23 5.91,-13.15 13.13,-13.15" /><path
         id="path166"
         style="fill:#ffffff;fill-opacity:1;fill-rule:evenodd;stroke:none"
         d="m 4211.57,3926.09 h 30.05 c 7.23,0 13.15,5.92 13.15,13.15 v 30.05 c 0,7.22 -5.92,13.14 -13.15,13.14 h -30.05 c -7.22,0 -13.14,-5.92 -13.14,-13.14 v -30.05 c 0,-7.23 5.92,-13.15 13.14,-13.15" /><path
         id="path168"
         style="fill:#ffffff;fill-opacity:1;fill-rule:evenodd;stroke:none"
         d="m 3902.71,4039.71 h 30.04 c 7.23,0 13.15,5.9 13.15,13.13 v 30.06 c 0,7.23 -5.92,13.14 -13.15,13.14 h -30.04 c -7.23,0 -13.15,-5.91 -13.15,-13.14 v -30.06 c 0,-7.23 5.92,-13.13 13.15,-13.13" /><path
         id="path170"
         style="fill:#87c3d8;fill-opacity:1;fill-rule:evenodd;stroke:none"
         d="m 4006.92,4039.71 h 30.05 c 7.23,0 13.15,5.9 13.15,13.13 v 30.06 c 0,7.23 -5.92,13.14 -13.15,13.14 h -30.05 c -7.23,0 -13.14,-5.91 -13.14,-13.14 v -30.06 c 0,-7.23 5.91,-13.13 13.14,-13.13" /><path
         id="path172"
         style="fill:#ffffff;fill-opacity:1;fill-rule:evenodd;stroke:none"
         d="m 4111.13,4039.71 h 30.05 c 7.24,0 13.15,5.9 13.15,13.13 v 30.06 c 0,7.23 -5.91,13.14 -13.15,13.14 h -30.05 c -7.22,0 -13.14,-5.91 -13.14,-13.14 v -30.06 c 0,-7.23 5.92,-13.13 13.14,-13.13" /><path
         id="path174"
         style="fill:#ffffff;fill-opacity:1;fill-rule:evenodd;stroke:none"
         d="m 4003.14,3804.04 h 30.05 c 7.23,0 13.15,5.91 13.15,13.14 v 30.06 c 0,7.22 -5.92,13.13 -13.15,13.13 h -30.05 c -7.22,0 -13.13,-5.91 -13.13,-13.13 v -30.06 c 0,-7.23 5.91,-13.14 13.13,-13.14" /><path
         id="path176"
         style="fill:#87c3d8;fill-opacity:1;fill-rule:evenodd;stroke:none"
         d="m 4107.35,3804.04 h 30.06 c 7.23,0 13.14,5.91 13.14,13.14 v 30.06 c 0,7.22 -5.91,13.13 -13.14,13.13 h -30.06 c -7.22,0 -13.13,-5.91 -13.13,-13.13 v -30.06 c 0,-7.23 5.91,-13.14 13.13,-13.14" /><path
         id="path178"
         style="fill:#ffffff;fill-opacity:1;fill-rule:evenodd;stroke:none"
         d="m 1474.32,3066.66 v 0 c 30.03,30.04 79.18,30.04 109.21,0 l 7.41,-7.41 7.41,7.41 c 30.03,30.04 79.18,30.04 109.21,0 v 0 c 30.04,-30.03 30.04,-79.17 0,-109.21 l -7.41,-7.41 -109.21,-109.21 -109.21,109.21 -7.41,7.41 c -30.04,30.04 -30.04,79.18 0,109.21" /><path
         id="path180"
         style="fill:#39a8b2;fill-opacity:1;fill-rule:evenodd;stroke:none"
         d="m 1326.9,1783.85 c -80.1,81.55 -139.68,-22.04 -131.36,-126.04 7.88,-98.59 92.87,-436.88 77.12,-579.21 h 32.54 c 79.6,182.5 124.24,600.84 21.7,705.25" /><path
         id="path182"
         style="fill:#55b7bd;fill-opacity:1;fill-rule:evenodd;stroke:none"
         d="m 1293.23,1078.6 c 77.48,287.65 -20.61,685.27 -20.94,686.62 -0.59,2.48 -3.08,3.99 -5.55,3.38 -2.47,-0.59 -3.99,-3.08 -3.39,-5.55 0.33,-1.35 98.54,-399.42 20.47,-684.45 h 9.41" /><path
         id="path184"
         style="fill:#ffffff;fill-opacity:1;fill-rule:evenodd;stroke:none"
         d="m 1129.29,1604.11 c -84.4,44.72 -105.69,-52.85 -72.78,-133.58 27.27,-66.9 147.75,-264.79 193.3,-391.93 h 42.9 c 3.65,175.71 -63.78,472.73 -163.42,525.51" /><path
         id="path186"
         style="fill:#adaeb8;fill-opacity:1;fill-rule:evenodd;stroke:none"
         d="m 1277.04,1078.6 c -27.92,237.64 -185.96,495.94 -186.53,496.88 -1.1,1.82 -3.47,2.39 -5.28,1.3 -1.82,-1.11 -2.4,-3.47 -1.29,-5.29 0.56,-0.93 157.59,-257.56 185.47,-492.89 h 7.63" /><path
         id="path188"
         style="fill:#278280;fill-opacity:1;fill-rule:evenodd;stroke:none"
         d="m 1486.04,1491.33 c 81.81,35.73 94.78,-56.69 58.43,-129.61 -24.59,-49.34 -113.21,-175.66 -172.89,-283.12 h -68.11 c 23.29,162.57 98.01,375.79 182.57,412.73" /><path
         id="path190"
         style="fill:#2aa7a0;fill-opacity:1;fill-rule:evenodd;stroke:none"
         d="m 1327.79,1078.6 c 58.08,196.96 191.84,382.56 192.38,383.31 1.15,1.62 3.4,1.99 5.01,0.83 1.62,-1.15 1.99,-3.39 0.84,-5.01 -0.54,-0.74 -132.89,-184.41 -190.83,-379.13 h -7.4" /><path
         id="path192"
         style="fill:#34345f;fill-opacity:1;fill-rule:evenodd;stroke:none"
         d="m 1160.91,1155.33 h 282.84 c 8.46,0 15.38,-6.91 15.38,-15.38 v -69.82 c 0,-8.47 -6.92,-15.39 -15.38,-15.39 h -282.84 c -8.46,0 -15.38,6.92 -15.38,15.39 v 69.82 c 0,8.47 6.92,15.38 15.38,15.38" /><path
         id="path194"
         style="fill:#34345f;fill-opacity:1;fill-rule:evenodd;stroke:none"
         d="m 1209.42,1098.54 h 185.81 l 48.52,-43.79 -39.63,-152.66 h -101.79 -101.79 l -39.63,152.66 48.51,43.79" /><path
         id="path196"
         style="fill:#21203a;fill-opacity:1;fill-rule:evenodd;stroke:none"
         d="m 1443.75,1054.75 -8.15,-31.38 h -266.54 l -8.15,31.38 h 282.84" /><path
         id="path198"
         style="fill:#87c3d8;fill-opacity:1;fill-rule:evenodd;stroke:none"
         d="m 2789.2,3955.21 c 14.48,0 26.29,11.8 26.29,26.28 0,14.49 -11.81,26.29 -26.29,26.29 -14.48,0 -26.29,-11.8 -26.29,-26.29 0,-14.48 11.81,-26.28 26.29,-26.28" /><path
         id="path200"
         style="fill:#87c3d8;fill-opacity:1;fill-rule:evenodd;stroke:none"
         d="m 3217.33,2449.23 c 14.48,0 26.29,11.81 26.29,26.29 0,14.47 -11.81,26.29 -26.29,26.29 -14.48,0 -26.29,-11.82 -26.29,-26.29 0,-14.48 11.81,-26.29 26.29,-26.29" /><path
         id="path202"
         style="fill:#87c3d8;fill-opacity:1;fill-rule:evenodd;stroke:none"
         d="m 3750.63,1352.6 c 14.47,0 26.28,11.81 26.28,26.29 0,14.48 -11.81,26.29 -26.28,26.29 -14.49,0 -26.29,-11.81 -26.29,-26.29 0,-14.48 11.8,-26.29 26.29,-26.29" /><path
         id="path204"
         style="fill:#87c3d8;fill-opacity:1;fill-rule:evenodd;stroke:none"
         d="m 686.09,1562.91 c 14.476,0 26.289,11.82 26.289,26.29 0,14.48 -11.813,26.29 -26.289,26.29 -14.485,0 -26.289,-11.81 -26.289,-26.29 0,-14.47 11.804,-26.29 26.289,-26.29" /><path
         id="path206"
         style="fill:#87c3d8;fill-opacity:1;fill-rule:evenodd;stroke:none"
         d="m 3840.75,3155.27 c 14.48,0 26.29,11.81 26.29,26.29 0,14.48 -11.81,26.29 -26.29,26.29 -14.47,0 -26.29,-11.81 -26.29,-26.29 0,-14.48 11.82,-26.29 26.29,-26.29" /><path
         id="path208"
         style="fill:#87c3d8;fill-opacity:1;fill-rule:evenodd;stroke:none"
         d="m 1474.76,3328.03 c 14.47,0 26.28,11.8 26.28,26.29 0,14.48 -11.81,26.29 -26.28,26.29 -14.49,0 -26.29,-11.81 -26.29,-26.29 0,-14.49 11.8,-26.29 26.29,-26.29" /><path
         id="path210"
         style="fill:#ffffff;fill-opacity:1;fill-rule:evenodd;stroke:none"
         d="m 1410.91,1818.29 c 14.48,0 26.29,11.81 26.29,26.29 0,14.48 -11.81,26.29 -26.29,26.29 -14.48,0 -26.29,-11.81 -26.29,-26.29 0,-14.48 11.81,-26.29 26.29,-26.29" /><path
         id="path212"
         style="fill:#ffffff;fill-opacity:1;fill-rule:evenodd;stroke:none"
         d="m 3923.38,1949.74 c 14.48,0 26.29,11.8 26.29,26.29 0,14.48 -11.81,26.28 -26.29,26.28 -14.48,0 -26.29,-11.8 -26.29,-26.28 0,-14.49 11.81,-26.29 26.29,-26.29" /><path
         id="path214"
         style="fill:#ffffff;fill-opacity:1;fill-rule:evenodd;stroke:none"
         d="m 3397.61,3061.39 c 14.47,0 26.29,11.8 26.29,26.29 0,14.47 -11.82,26.28 -26.29,26.28 -14.49,0 -26.3,-11.81 -26.3,-26.28 0,-14.49 11.81,-26.29 26.3,-26.29" /><path
         id="path216"
         style="fill:#ffffff;fill-opacity:1;fill-rule:evenodd;stroke:none"
         d="m 3183.54,4034.07 c 14.47,0 26.28,11.81 26.28,26.29 0,14.48 -11.81,26.29 -26.28,26.29 -14.49,0 -26.29,-11.81 -26.29,-26.29 0,-14.48 11.8,-26.29 26.29,-26.29" /><path
         id="path218"
         style="fill:#ffffff;fill-opacity:1;fill-rule:evenodd;stroke:none"
         d="m 4242.61,3373.1 c 14.47,0 26.29,11.8 26.29,26.28 0,14.49 -11.82,26.29 -26.29,26.29 -14.48,0 -26.29,-11.8 -26.29,-26.29 0,-14.48 11.81,-26.28 26.29,-26.28" /><path
         id="path220"
         style="fill:#ba2539;fill-opacity:1;fill-rule:evenodd;stroke:none"
         d="m 3860.12,1106.2 c -9.88,9.86 -23.11,15.35 -37.06,15.35 -13.95,0 -27.19,-5.49 -37.04,-15.35 -9.88,-9.86 -15.37,-23.09 -15.37,-37.05 0,-13.95 5.49,-27.19 15.37,-37.05 9.85,-9.86 23.09,-15.35 37.04,-15.35 13.95,0 27.18,5.49 37.06,15.35 9.85,9.86 15.34,23.1 15.34,37.05 0,13.96 -5.49,27.19 -15.34,37.05 z m -37.06,48.9 c 22.87,0 44.61,-9.02 60.77,-25.18 16.16,-16.16 25.17,-37.91 25.17,-60.77 0,-22.86 -9.01,-44.61 -25.17,-60.77 -16.16,-16.161 -37.9,-25.181 -60.77,-25.181 -22.86,0 -44.6,9.02 -60.77,25.181 -16.17,16.16 -25.17,37.91 -25.17,60.77 0,22.86 9,44.61 25.17,60.77 16.17,16.16 37.91,25.18 60.77,25.18 v 0" /><path
         id="path222"
         style="fill:#ef2f4b;fill-opacity:1;fill-rule:evenodd;stroke:none"
         d="m 3686.21,900.84 v 0 c 74.15,0 134.81,60.629 134.81,134.8 v 7.52 122.92 10.06 c 0,6.57 -5.37,11.92 -11.94,11.92 h -245.73 c -6.56,0 -11.93,-5.35 -11.93,-11.92 v -10.06 -122.92 -7.52 c 0,-74.171 60.66,-134.8 134.79,-134.8" /><path
         id="path224"
         style="fill:#ba2539;fill-opacity:1;fill-rule:evenodd;stroke:none"
         d="m 3774.86,1052.49 c 0,-14.39 -2.28,-28.28 -6.51,-41.32 -2.38,-7.36 -5.39,-14.451 -8.97,-21.209 -14.63,-27.742 -38.67,-49.84 -67.79,-61.981 -15.89,-6.621 -33.3,-10.289 -51.53,-10.289 -7.52,0 -14.89,0.618 -22.09,1.821 20.05,-11.852 43.39,-18.672 68.24,-18.672 30.29,0 58.32,10.121 80.9,27.14 14.69,11.079 27.07,25.102 36.25,41.161 3.72,6.5 6.91,13.347 9.52,20.468 5.25,14.371 8.14,29.881 8.14,46.031 v 7.52 77.91 21.46 23.55 10.06 c 0,6.57 -5.37,11.92 -11.94,11.92 h -34.22 v -5.13 -51.27 -25.91 -45.74 -7.52" /><path
         id="path226"
         style="fill:#ef2f4b;fill-opacity:1;fill-rule:evenodd;stroke:none"
         d="m 3569.38,900.84 h 233.67 c 9.89,0 17.97,8.09 17.97,17.969 v 0 c 0,9.89 -8.08,17.98 -17.97,17.98 h -233.67 c -9.88,0 -17.96,-8.09 -17.96,-17.98 v 0 c 0,-9.879 8.08,-17.969 17.96,-17.969" /><path
         id="path228"
         style="fill:#f14866;fill-opacity:1;fill-rule:evenodd;stroke:none"
         d="m 3594.59,1162.44 h 0.01 c 12.49,0 22.7,-10.21 22.7,-22.7 v -81.33 c 0,-12.49 -10.21,-22.71 -22.7,-22.71 h -0.01 c -12.48,0 -22.71,10.22 -22.71,22.71 v 81.33 c 0,12.49 10.23,22.7 22.71,22.7" /><path
         id="path230"
         style="fill:#ffffff;fill-opacity:1;fill-rule:evenodd;stroke:none"
         d="m 3571.08,1354.27 h 102.77 c 7.79,0 14.17,6.37 14.17,14.17 v 0 c 0,7.79 -6.38,14.16 -14.17,14.16 h -138.23 c -20.36,0 -37.02,16.66 -37.02,37.01 v 0 c 0,20.35 16.65,37 37.02,37 h 359.47 c 20.35,0 37,-16.65 37,-37 v 0 c 0,-20.35 -16.65,-37.01 -37,-37.01 h -125.38 c -7.8,0 -14.17,-6.37 -14.17,-14.16 v 0 c 0,-7.8 6.37,-14.17 14.17,-14.17 h 48.24 c 15.71,0 28.56,-12.85 28.56,-28.56 v 0 c 0,-15.7 -12.85,-28.55 -28.56,-28.55 h -79.79 c -31.22,0 -56.77,-25.56 -56.77,-56.78 v -26.03 c 0,-7.38 -6.04,-13.4 -13.41,-13.4 v 0 c -7.37,0 -13.41,6.02 -13.41,13.4 v 49.52 c 0,18.31 -14.98,33.29 -33.28,33.29 h -50.21 c -15.7,0 -28.55,12.85 -28.55,28.55 v 0 c 0,15.71 12.85,28.56 28.55,28.56" /></g></g></svg>