<?xml version="1.0" encoding="UTF-8" standalone="no"?>
<!DOCTYPE svg PUBLIC "-//W3C//DTD SVG 1.1//EN" "http://www.w3.org/Graphics/SVG/1.1/DTD/svg11.dtd">
<svg version="1.1" xmlns="http://www.w3.org/2000/svg" xmlns:xlink="http://www.w3.org/1999/xlink" preserveAspectRatio="xMidYMid meet" viewBox="0 0 640 640" width="640" height="640"><defs><path d="M628.13 355.56C616.31 334.22 592.44 291.56 568.89 274.98C545.2 258.22 521.33 268 497.78 279.69C474.09 291.56 450.22 305.78 426.67 305.78C402.98 305.78 379.11 291.56 355.56 298.67C331.87 305.78 308 334.22 284.44 341.33C260.76 348.44 236.89 334.22 213.33 320C189.64 305.78 165.78 291.56 142.22 289.2C118.53 286.67 94.67 296.44 71.11 296.31C47.42 296.44 23.56 286.67 12 282.09C11.2 281.77 7.2 280.19 0 277.33C0 288.71 0 379.73 0 391.11C7.12 391.11 11.08 391.11 11.87 391.11C23.69 391.11 47.56 391.11 71.11 391.11C94.8 391.11 118.67 391.11 142.22 391.11C165.91 391.11 189.78 391.11 213.33 391.11C237.02 391.11 260.89 391.11 284.44 391.11C308.13 391.11 332 391.11 355.56 391.11C379.24 391.11 403.11 391.11 426.67 391.11C450.36 391.11 474.22 391.11 497.78 391.11C521.47 391.11 545.33 391.11 568.89 391.11C592.58 391.11 616.44 391.11 628 391.11C628.8 391.11 632.8 391.11 640 391.11C640 390.16 640 385.42 640 376.89C632.61 363.62 628.66 356.51 628.13 355.56Z" id="a3eejKOTFW"></path><path d="M645 385.1L645 677.81L-11.25 677.81L-11.25 385.1L645 385.1Z" id="dmSJciJ6K"></path></defs><g><g><g><use xlink:href="#a3eejKOTFW" opacity="1" fill="#ddd0f1" fill-opacity="1"></use><g><use xlink:href="#a3eejKOTFW" opacity="1" fill-opacity="0" stroke="#000000" stroke-width="1" stroke-opacity="0"></use></g></g><g><use xlink:href="#dmSJciJ6K" opacity="1" fill="#ddd0f1" fill-opacity="1"></use><g><use xlink:href="#dmSJciJ6K" opacity="1" fill-opacity="0" stroke="#000000" stroke-width="1" stroke-opacity="0"></use></g></g></g></g></svg>