<?xml version="1.0" standalone="no"?><svg xmlns="http://www.w3.org/2000/svg" viewBox="0 0 1440 320"><path fill="#a589d1" fill-opacity="1" d="M0,288L26.7,240C53.3,192,107,96,160,58.7C213.3,21,267,43,320,69.3C373.3,96,427,128,480,128C533.3,128,587,96,640,112C693.3,128,747,192,800,208C853.3,224,907,192,960,160C1013.3,128,1067,96,1120,90.7C1173.3,85,1227,107,1280,106.7C1333.3,107,1387,85,1413,74.7L1440,64L1440,320L1413.3,320C1386.7,320,1333,320,1280,320C1226.7,320,1173,320,1120,320C1066.7,320,1013,320,960,320C906.7,320,853,320,800,320C746.7,320,693,320,640,320C586.7,320,533,320,480,320C426.7,320,373,320,320,320C266.7,320,213,320,160,320C106.7,320,53,320,27,320L0,320Z"></path></svg>