<?xml version="1.0" encoding="UTF-8" standalone="no"?>
<!DOCTYPE svg PUBLIC "-//W3C//DTD SVG 1.1//EN" "http://www.w3.org/Graphics/SVG/1.1/DTD/svg11.dtd">
<svg version="1.1" xmlns="http://www.w3.org/2000/svg" xmlns:xlink="http://www.w3.org/1999/xlink" preserveAspectRatio="xMidYMid meet" viewBox="0 0 640 640" width="640" height="640"><defs><path d="M0 376.89C7.12 364.09 11.08 356.98 11.87 355.56C23.69 334.22 47.56 291.56 71.11 274.98C94.8 258.22 118.67 268 142.22 279.69C165.91 291.56 189.78 305.78 213.33 305.78C237.02 305.78 260.89 291.56 284.44 298.67C308.13 305.78 332 334.22 355.56 341.33C379.24 348.44 403.11 334.22 426.67 320C450.36 305.78 474.22 291.56 497.78 289.2C521.47 286.67 545.33 296.44 568.89 296.31C592.58 296.44 616.44 286.67 628 282.09C628.8 281.77 632.8 280.19 640 277.33L640 391.11C632.88 391.11 628.92 391.11 628.13 391.11C616.31 391.11 592.44 391.11 568.89 391.11C545.2 391.11 521.33 391.11 497.78 391.11C474.09 391.11 450.22 391.11 426.67 391.11C402.98 391.11 379.11 391.11 355.56 391.11C331.87 391.11 308 391.11 284.44 391.11C260.76 391.11 236.89 391.11 213.33 391.11C189.64 391.11 165.78 391.11 142.22 391.11C118.53 391.11 94.67 391.11 71.11 391.11C47.42 391.11 23.56 391.11 12 391.11C11.2 391.11 7.2 391.11 0 391.11L0 376.89Z" id="anzYSBpc8"></path><path d="M-11.25 385.1L645 385.1L645 677.81L-11.25 677.81L-11.25 385.1Z" id="i96ikZtAI"></path></defs><g><g><g><use xlink:href="#anzYSBpc8" opacity="1" fill="#a589d1" fill-opacity="1"></use><g><use xlink:href="#anzYSBpc8" opacity="1" fill-opacity="0" stroke="#000000" stroke-width="1" stroke-opacity="0"></use></g></g><g><use xlink:href="#i96ikZtAI" opacity="1" fill="#a589d1" fill-opacity="1"></use></g></g></g></svg>